<?xml version="1.0" encoding="UTF-8"?>
<svg xmlns="http://www.w3.org/2000/svg" xmlns:xlink="http://www.w3.org/1999/xlink" width="37.5pt" height="37.499999pt" viewBox="0 0 37.5 37.499999" version="1.2">
<defs>
<clipPath id="clip1">
  <path d="M 4 5.042969 L 36 5.042969 L 36 33 L 4 33 Z M 4 5.042969 "/>
</clipPath>
<clipPath id="clip2">
  <path d="M 1 13 L 22 13 L 22 33.355469 L 1 33.355469 Z M 1 13 "/>
</clipPath>
<clipPath id="clip3">
  <path d="M 0 13 L 22 13 L 22 33.355469 L 0 33.355469 Z M 0 13 "/>
</clipPath>
</defs>
<g id="surface1">
<g clip-path="url(#clip1)" clip-rule="nonzero">
<path style=" stroke:none;fill-rule:nonzero;fill:rgb(100%,100%,100%);fill-opacity:1;" d="M 27.617188 5.257812 C 21.167969 5.46875 19.878906 11.414062 19.878906 11.414062 C 19.878906 11.414062 18.585938 5.46875 12.136719 5.257812 C 6.71875 5.082031 3.425781 10.964844 5.058594 16.75 C 5.445312 16.683594 5.828125 16.648438 6.210938 16.648438 C 7.585938 16.648438 8.714844 17.082031 9.582031 17.609375 C 9.980469 15.984375 11.042969 14.199219 13.375 13.152344 C 14.136719 12.808594 14.933594 12.636719 15.742188 12.636719 C 17.550781 12.636719 19.332031 13.519531 20.636719 15.058594 C 22.273438 16.996094 22.9375 19.621094 22.453125 22.257812 C 21.839844 25.605469 20.023438 29.109375 18.667969 31.371094 C 19.421875 31.878906 19.878906 32.160156 19.878906 32.160156 C 19.878906 32.160156 28.90625 26.585938 33.207031 20.007812 C 37.507812 13.429688 34.070312 5.046875 27.617188 5.257812 "/>
<path style=" stroke:none;fill-rule:nonzero;fill:rgb(13.729858%,12.159729%,12.548828%);fill-opacity:1;" d="M 27.617188 5.257812 L 27.609375 5.0625 C 25.96875 5.117188 24.640625 5.535156 23.585938 6.140625 C 22 7.042969 21.027344 8.351562 20.449219 9.429688 C 19.871094 10.507812 19.683594 11.359375 19.683594 11.371094 L 19.878906 11.414062 L 20.074219 11.371094 C 20.070312 11.355469 19.742188 9.847656 18.585938 8.296875 C 18.007812 7.523438 17.222656 6.742188 16.167969 6.140625 C 15.113281 5.535156 13.785156 5.117188 12.144531 5.0625 C 12.0625 5.058594 11.976562 5.058594 11.898438 5.058594 C 10.78125 5.058594 9.75 5.308594 8.839844 5.761719 C 7.472656 6.441406 6.371094 7.570312 5.613281 8.960938 C 4.855469 10.351562 4.4375 12.003906 4.4375 13.75 C 4.4375 14.746094 4.574219 15.777344 4.863281 16.804688 C 4.894531 16.902344 4.992188 16.960938 5.09375 16.945312 C 5.46875 16.878906 5.84375 16.84375 6.210938 16.84375 C 7.542969 16.84375 8.632812 17.265625 9.476562 17.777344 C 9.53125 17.808594 9.597656 17.816406 9.65625 17.789062 C 9.714844 17.765625 9.757812 17.714844 9.773438 17.65625 C 9.96875 16.867188 10.324219 16.039062 10.910156 15.285156 C 11.5 14.527344 12.320312 13.84375 13.457031 13.332031 C 14.195312 13 14.960938 12.832031 15.742188 12.832031 C 17.480469 12.832031 19.210938 13.683594 20.480469 15.1875 C 21.738281 16.671875 22.410156 18.570312 22.410156 20.570312 C 22.410156 21.117188 22.359375 21.671875 22.257812 22.222656 C 21.652344 25.527344 19.84375 29.019531 18.496094 31.269531 C 18.445312 31.359375 18.46875 31.476562 18.554688 31.535156 C 19.308594 32.042969 19.769531 32.328125 19.769531 32.328125 C 19.835938 32.367188 19.917969 32.367188 19.984375 32.328125 C 19.988281 32.324219 22.25 30.929688 25.054688 28.707031 C 27.859375 26.480469 31.207031 23.433594 33.375 20.113281 C 34.714844 18.066406 35.316406 15.84375 35.316406 13.75 C 35.316406 11.425781 34.574219 9.257812 33.269531 7.664062 C 32.617188 6.867188 31.824219 6.214844 30.914062 5.761719 C 30 5.308594 28.972656 5.058594 27.855469 5.058594 C 27.773438 5.058594 27.695312 5.058594 27.609375 5.0625 L 27.617188 5.257812 L 27.625 5.457031 C 27.703125 5.453125 27.78125 5.453125 27.855469 5.453125 C 28.910156 5.453125 29.875 5.691406 30.734375 6.117188 C 32.019531 6.753906 33.0625 7.820312 33.789062 9.148438 C 34.511719 10.476562 34.917969 12.066406 34.917969 13.75 C 34.917969 15.769531 34.335938 17.917969 33.039062 19.902344 C 30.910156 23.160156 27.589844 26.1875 24.804688 28.398438 C 23.410156 29.5 22.152344 30.402344 21.242188 31.023438 C 20.785156 31.335938 20.417969 31.578125 20.164062 31.742188 C 20.035156 31.824219 19.9375 31.886719 19.871094 31.929688 C 19.839844 31.949219 19.8125 31.964844 19.796875 31.976562 C 19.777344 31.988281 19.769531 31.992188 19.769531 31.992188 L 19.878906 32.160156 L 19.984375 31.992188 C 19.984375 31.992188 19.976562 31.988281 19.964844 31.980469 C 19.867188 31.921875 19.4375 31.652344 18.78125 31.207031 L 18.667969 31.371094 L 18.839844 31.46875 C 20.199219 29.195312 22.03125 25.679688 22.652344 22.292969 C 22.757812 21.71875 22.808594 21.140625 22.808594 20.570312 C 22.808594 18.484375 22.109375 16.492188 20.789062 14.933594 C 19.453125 13.355469 17.617188 12.4375 15.742188 12.4375 C 14.90625 12.4375 14.078125 12.617188 13.292969 12.972656 C 12.097656 13.507812 11.222656 14.238281 10.59375 15.042969 C 9.96875 15.847656 9.59375 16.726562 9.386719 17.5625 L 9.582031 17.609375 L 9.683594 17.441406 C 8.796875 16.898438 7.628906 16.449219 6.210938 16.449219 C 5.816406 16.449219 5.421875 16.488281 5.023438 16.554688 L 5.058594 16.75 L 5.25 16.695312 C 4.972656 15.707031 4.839844 14.710938 4.839844 13.75 C 4.839844 11.503906 5.554688 9.425781 6.796875 7.914062 C 7.414062 7.15625 8.164062 6.542969 9.019531 6.117188 C 9.878906 5.691406 10.839844 5.453125 11.898438 5.453125 C 11.972656 5.453125 12.050781 5.453125 12.128906 5.457031 C 13.710938 5.507812 14.964844 5.910156 15.96875 6.480469 C 17.464844 7.335938 18.398438 8.582031 18.953125 9.613281 C 19.230469 10.128906 19.414062 10.59375 19.527344 10.925781 C 19.582031 11.09375 19.621094 11.226562 19.648438 11.316406 C 19.660156 11.363281 19.667969 11.398438 19.675781 11.421875 L 19.679688 11.449219 L 19.679688 11.453125 L 19.683594 11.453125 C 19.703125 11.546875 19.78125 11.609375 19.878906 11.609375 C 19.972656 11.609375 20.054688 11.546875 20.074219 11.453125 C 20.089844 11.378906 20.433594 9.917969 21.542969 8.464844 C 22.097656 7.738281 22.839844 7.011719 23.835938 6.453125 C 24.828125 5.898438 26.066406 5.507812 27.625 5.457031 L 27.617188 5.257812 "/>
</g>
<g clip-path="url(#clip2)" clip-rule="nonzero">
<path style=" stroke:none;fill-rule:nonzero;fill:rgb(100%,100%,100%);fill-opacity:1;" d="M 13.867188 14.210938 C 9.863281 16.011719 10.625 20.082031 10.625 20.082031 C 10.625 20.082031 8.238281 16.675781 4.121094 18.207031 C 0.00390625 19.742188 0.0625 25.90625 4.511719 28.933594 C 8.960938 31.964844 16.125 33.140625 16.125 33.140625 C 16.125 33.140625 20.332031 27.300781 21.292969 22.050781 C 22.253906 16.800781 17.867188 12.414062 13.867188 14.210938 "/>
</g>
<g clip-path="url(#clip3)" clip-rule="nonzero">
<path style=" stroke:none;fill-rule:nonzero;fill:rgb(13.729858%,12.159729%,12.548828%);fill-opacity:1;" d="M 13.867188 14.210938 L 13.78125 14.03125 C 12.292969 14.699219 11.425781 15.691406 10.949219 16.671875 C 10.46875 17.65625 10.367188 18.628906 10.367188 19.285156 C 10.367188 19.789062 10.425781 20.109375 10.429688 20.121094 L 10.625 20.082031 L 10.789062 19.972656 C 10.78125 19.960938 10.371094 19.378906 9.597656 18.792969 C 8.824219 18.207031 7.675781 17.617188 6.210938 17.617188 C 5.550781 17.613281 4.828125 17.734375 4.050781 18.023438 C 3.007812 18.410156 2.214844 19.089844 1.691406 19.9375 C 1.164062 20.78125 0.902344 21.789062 0.902344 22.84375 C 0.902344 25.066406 2.0625 27.503906 4.398438 29.097656 C 6.65625 30.632812 9.574219 31.6875 11.929688 32.363281 C 14.289062 33.039062 16.085938 33.335938 16.089844 33.335938 C 16.167969 33.347656 16.242188 33.316406 16.285156 33.257812 C 16.289062 33.253906 17.34375 31.785156 18.523438 29.660156 C 19.699219 27.535156 21 24.75 21.492188 22.085938 C 21.582031 21.578125 21.628906 21.074219 21.628906 20.585938 C 21.628906 18.652344 20.9375 16.910156 19.859375 15.648438 C 18.78125 14.390625 17.304688 13.605469 15.742188 13.605469 C 15.09375 13.605469 14.433594 13.738281 13.78125 14.03125 L 13.867188 14.210938 L 13.949219 14.390625 C 14.546875 14.121094 15.152344 14 15.742188 14 C 17.167969 14 18.535156 14.71875 19.550781 15.90625 C 20.570312 17.09375 21.226562 18.746094 21.226562 20.585938 C 21.226562 21.050781 21.1875 21.53125 21.097656 22.015625 C 20.621094 24.605469 19.339844 27.367188 18.171875 29.472656 C 17.589844 30.523438 17.035156 31.414062 16.628906 32.039062 C 16.425781 32.355469 16.257812 32.601562 16.140625 32.769531 C 16.082031 32.855469 16.039062 32.917969 16.007812 32.960938 C 15.992188 32.984375 15.980469 33 15.972656 33.011719 L 15.960938 33.027344 L 16.125 33.140625 L 16.15625 32.945312 C 16.15625 32.945312 16.128906 32.941406 16.078125 32.933594 C 15.679688 32.863281 13.847656 32.527344 11.597656 31.855469 C 9.347656 31.183594 6.683594 30.175781 4.625 28.773438 C 2.394531 27.253906 1.300781 24.933594 1.300781 22.84375 C 1.300781 21.855469 1.546875 20.917969 2.03125 20.144531 C 2.515625 19.367188 3.230469 18.75 4.191406 18.394531 C 4.925781 18.121094 5.597656 18.011719 6.210938 18.011719 C 7.566406 18.011719 8.625 18.554688 9.355469 19.105469 C 9.71875 19.378906 9.996094 19.65625 10.183594 19.859375 C 10.277344 19.964844 10.347656 20.046875 10.394531 20.109375 C 10.417969 20.136719 10.433594 20.160156 10.445312 20.175781 L 10.457031 20.191406 L 10.460938 20.195312 C 10.515625 20.273438 10.613281 20.300781 10.703125 20.265625 C 10.789062 20.230469 10.839844 20.140625 10.820312 20.046875 C 10.816406 20.019531 10.765625 19.726562 10.765625 19.285156 C 10.765625 18.667969 10.863281 17.753906 11.308594 16.84375 C 11.753906 15.933594 12.539062 15.027344 13.949219 14.390625 L 13.867188 14.210938 "/>
</g>
</g>
</svg>
