<?xml version="1.0" encoding="UTF-8"?>
<svg xmlns="http://www.w3.org/2000/svg" xmlns:xlink="http://www.w3.org/1999/xlink" width="37.5pt" height="37.499999pt" viewBox="0 0 37.5 37.499999" version="1.2">
<defs>
<clipPath id="clip1">
  <path d="M 4 3.667969 L 36 3.667969 L 36 31 L 4 31 Z M 4 3.667969 "/>
</clipPath>
<clipPath id="clip2">
  <path d="M 4 3.667969 L 36 3.667969 L 36 32 L 4 32 Z M 4 3.667969 "/>
</clipPath>
<clipPath id="clip3">
  <path d="M 0 12 L 22 12 L 22 32.167969 L 0 32.167969 Z M 0 12 "/>
</clipPath>
</defs>
<g id="surface1">
<g clip-path="url(#clip1)" clip-rule="nonzero">
<path style=" stroke:none;fill-rule:nonzero;fill:rgb(13.729858%,12.159729%,12.548828%);fill-opacity:1;" d="M 27.617188 3.886719 C 21.167969 4.101562 19.878906 10.082031 19.878906 10.082031 C 19.878906 10.082031 18.585938 4.101562 12.136719 3.886719 C 6.71875 3.707031 3.425781 9.628906 5.058594 15.453125 C 5.445312 15.386719 5.828125 15.351562 6.210938 15.351562 C 7.585938 15.351562 8.714844 15.789062 9.582031 16.316406 C 9.980469 14.683594 11.042969 12.886719 13.375 11.832031 C 14.136719 11.488281 14.933594 11.3125 15.742188 11.3125 C 17.550781 11.3125 19.332031 12.203125 20.636719 13.75 C 22.273438 15.703125 22.9375 18.34375 22.453125 21 C 21.839844 24.367188 20.023438 27.890625 18.667969 30.171875 C 19.421875 30.683594 19.878906 30.964844 19.878906 30.964844 C 19.878906 30.964844 28.90625 25.355469 33.207031 18.734375 C 37.507812 12.109375 34.070312 3.671875 27.617188 3.886719 "/>
</g>
<g clip-path="url(#clip2)" clip-rule="nonzero">
<path style=" stroke:none;fill-rule:nonzero;fill:rgb(13.729858%,12.159729%,12.548828%);fill-opacity:1;" d="M 27.617188 3.886719 L 27.609375 3.6875 C 25.96875 3.742188 24.640625 4.164062 23.585938 4.773438 C 22 5.683594 21.027344 7 20.449219 8.085938 C 19.871094 9.171875 19.683594 10.027344 19.683594 10.039062 L 19.878906 10.082031 L 20.074219 10.039062 C 20.070312 10.023438 19.742188 8.503906 18.585938 6.945312 C 18.007812 6.167969 17.222656 5.378906 16.167969 4.773438 C 15.113281 4.164062 13.785156 3.742188 12.144531 3.6875 C 12.0625 3.683594 11.976562 3.683594 11.898438 3.683594 C 10.78125 3.683594 9.75 3.9375 8.839844 4.394531 C 7.472656 5.078125 6.371094 6.214844 5.613281 7.613281 C 4.855469 9.011719 4.4375 10.675781 4.4375 12.433594 C 4.4375 13.4375 4.574219 14.472656 4.863281 15.507812 C 4.894531 15.605469 4.992188 15.667969 5.09375 15.648438 C 5.46875 15.582031 5.84375 15.550781 6.210938 15.550781 C 7.542969 15.550781 8.632812 15.972656 9.476562 16.488281 C 9.53125 16.519531 9.597656 16.523438 9.65625 16.5 C 9.714844 16.476562 9.757812 16.425781 9.773438 16.363281 C 9.96875 15.570312 10.324219 14.738281 10.910156 13.976562 C 11.5 13.21875 12.320312 12.527344 13.457031 12.011719 C 14.195312 11.679688 14.960938 11.511719 15.742188 11.511719 C 17.480469 11.511719 19.210938 12.367188 20.480469 13.878906 C 21.738281 15.375 22.410156 17.285156 22.410156 19.300781 C 22.410156 19.851562 22.359375 20.40625 22.257812 20.964844 C 21.652344 24.289062 19.84375 27.804688 18.496094 30.070312 C 18.445312 30.160156 18.46875 30.273438 18.554688 30.335938 C 19.308594 30.847656 19.769531 31.132812 19.769531 31.132812 C 19.835938 31.175781 19.917969 31.175781 19.984375 31.132812 C 19.988281 31.132812 22.25 29.726562 25.054688 27.488281 C 27.859375 25.25 31.207031 22.183594 33.375 18.839844 C 34.714844 16.777344 35.316406 14.539062 35.316406 12.433594 C 35.316406 10.09375 34.574219 7.910156 33.269531 6.308594 C 32.617188 5.507812 31.824219 4.851562 30.914062 4.394531 C 30 3.9375 28.972656 3.683594 27.855469 3.683594 C 27.773438 3.683594 27.695312 3.683594 27.609375 3.6875 L 27.625 4.085938 C 27.703125 4.082031 27.78125 4.082031 27.855469 4.082031 C 28.910156 4.082031 29.875 4.320312 30.734375 4.75 C 32.019531 5.394531 33.0625 6.464844 33.789062 7.800781 C 34.511719 9.136719 34.917969 10.742188 34.917969 12.433594 C 34.917969 14.464844 34.335938 16.628906 33.039062 18.625 C 30.910156 21.90625 27.589844 24.957031 24.804688 27.175781 C 23.410156 28.289062 22.152344 29.195312 21.242188 29.820312 C 20.785156 30.136719 20.417969 30.378906 20.164062 30.546875 C 20.035156 30.628906 19.9375 30.691406 19.871094 30.734375 C 19.839844 30.753906 19.8125 30.769531 19.796875 30.78125 C 19.777344 30.792969 19.769531 30.796875 19.769531 30.796875 L 19.878906 30.964844 L 19.984375 30.796875 C 19.984375 30.796875 19.976562 30.792969 19.964844 30.785156 C 19.867188 30.722656 19.4375 30.453125 18.78125 30.007812 L 18.667969 30.171875 L 18.839844 30.269531 C 20.199219 27.984375 22.03125 24.445312 22.652344 21.035156 C 22.757812 20.453125 22.808594 19.875 22.808594 19.300781 C 22.808594 17.199219 22.109375 15.195312 20.789062 13.625 C 19.453125 12.035156 17.617188 11.113281 15.742188 11.113281 C 14.90625 11.113281 14.078125 11.296875 13.292969 11.648438 C 12.097656 12.191406 11.222656 12.925781 10.59375 13.734375 C 9.96875 14.546875 9.59375 15.429688 9.386719 16.269531 L 9.582031 16.316406 L 9.683594 16.148438 C 8.796875 15.605469 7.628906 15.152344 6.210938 15.152344 C 5.816406 15.152344 5.421875 15.1875 5.023438 15.257812 L 5.058594 15.453125 L 5.25 15.398438 C 4.972656 14.402344 4.839844 13.402344 4.839844 12.433594 C 4.839844 10.175781 5.554688 8.082031 6.796875 6.558594 C 7.414062 5.796875 8.164062 5.179688 9.019531 4.75 C 9.878906 4.320312 10.839844 4.082031 11.898438 4.082031 C 11.972656 4.082031 12.050781 4.082031 12.128906 4.085938 C 13.710938 4.136719 14.964844 4.542969 15.96875 5.117188 C 17.464844 5.976562 18.398438 7.230469 18.953125 8.269531 C 19.230469 8.789062 19.414062 9.257812 19.527344 9.59375 C 19.582031 9.757812 19.621094 9.894531 19.648438 9.984375 C 19.660156 10.03125 19.667969 10.066406 19.675781 10.089844 L 19.679688 10.117188 L 19.679688 10.121094 L 19.683594 10.125 C 19.703125 10.214844 19.78125 10.28125 19.878906 10.28125 C 19.972656 10.28125 20.054688 10.214844 20.074219 10.125 L 20.074219 10.121094 C 20.089844 10.046875 20.433594 8.574219 21.542969 7.113281 C 22.097656 6.378906 22.839844 5.652344 23.835938 5.089844 C 24.828125 4.53125 26.066406 4.136719 27.625 4.085938 L 27.617188 3.886719 "/>
</g>
<path style=" stroke:none;fill-rule:nonzero;fill:rgb(13.729858%,12.159729%,12.548828%);fill-opacity:1;" d="M 13.867188 12.898438 C 9.863281 14.710938 10.625 18.808594 10.625 18.808594 C 10.625 18.808594 8.238281 15.378906 4.121094 16.921875 C 0.00390625 18.464844 0.0625 24.667969 4.511719 27.71875 C 8.960938 30.769531 16.125 31.953125 16.125 31.953125 C 16.125 31.953125 20.332031 26.074219 21.292969 20.789062 C 22.253906 15.503906 17.867188 11.085938 13.867188 12.898438 "/>
<g clip-path="url(#clip3)" clip-rule="nonzero">
<path style=" stroke:none;fill-rule:nonzero;fill:rgb(13.729858%,12.159729%,12.548828%);fill-opacity:1;" d="M 13.867188 12.898438 L 13.78125 12.71875 C 12.292969 13.390625 11.425781 14.386719 10.949219 15.375 C 10.46875 16.363281 10.367188 17.34375 10.367188 18.007812 C 10.367188 18.511719 10.425781 18.835938 10.429688 18.84375 L 10.625 18.808594 L 10.789062 18.695312 C 10.78125 18.683594 10.371094 18.097656 9.597656 17.507812 C 8.824219 16.917969 7.675781 16.324219 6.210938 16.324219 C 5.550781 16.324219 4.828125 16.445312 4.050781 16.734375 C 3.007812 17.125 2.214844 17.808594 1.691406 18.660156 C 1.164062 19.511719 0.902344 20.527344 0.902344 21.589844 C 0.902344 23.824219 2.0625 26.28125 4.398438 27.882812 C 6.65625 29.429688 9.574219 30.488281 11.929688 31.171875 C 14.289062 31.851562 16.085938 32.148438 16.089844 32.148438 C 16.167969 32.160156 16.242188 32.128906 16.285156 32.070312 C 16.289062 32.0625 17.34375 30.589844 18.523438 28.449219 C 19.699219 26.308594 21 23.503906 21.492188 20.824219 C 21.582031 20.3125 21.628906 19.808594 21.628906 19.316406 C 21.628906 17.367188 20.9375 15.617188 19.859375 14.347656 C 18.78125 13.078125 17.304688 12.289062 15.742188 12.285156 C 15.09375 12.285156 14.433594 12.425781 13.78125 12.71875 L 13.867188 12.898438 L 13.949219 13.078125 C 14.546875 12.808594 15.152344 12.683594 15.742188 12.683594 C 17.167969 12.683594 18.535156 13.40625 19.550781 14.601562 C 20.570312 15.796875 21.226562 17.460938 21.226562 19.316406 C 21.226562 19.785156 21.1875 20.265625 21.097656 20.753906 C 20.621094 23.359375 19.339844 26.140625 18.171875 28.257812 C 17.589844 29.316406 17.035156 30.214844 16.628906 30.84375 C 16.425781 31.160156 16.257812 31.410156 16.140625 31.578125 C 16.082031 31.664062 16.039062 31.730469 16.007812 31.773438 C 15.992188 31.792969 15.980469 31.8125 15.972656 31.820312 L 15.960938 31.839844 L 16.125 31.953125 L 16.15625 31.757812 C 16.15625 31.757812 16.128906 31.753906 16.078125 31.742188 C 15.679688 31.675781 13.847656 31.335938 11.597656 30.660156 C 9.347656 29.980469 6.683594 28.964844 4.625 27.554688 C 2.394531 26.027344 1.300781 23.691406 1.300781 21.589844 C 1.300781 20.589844 1.546875 19.648438 2.03125 18.867188 C 2.515625 18.089844 3.230469 17.46875 4.191406 17.109375 C 4.925781 16.832031 5.597656 16.722656 6.210938 16.722656 C 7.566406 16.722656 8.625 17.269531 9.355469 17.824219 C 9.71875 18.101562 9.996094 18.378906 10.183594 18.585938 C 10.277344 18.6875 10.347656 18.773438 10.394531 18.832031 C 10.417969 18.863281 10.433594 18.886719 10.445312 18.902344 L 10.457031 18.917969 L 10.460938 18.921875 C 10.515625 19 10.613281 19.027344 10.703125 18.992188 C 10.789062 18.957031 10.839844 18.863281 10.820312 18.773438 L 10.820312 18.769531 C 10.816406 18.742188 10.765625 18.453125 10.765625 18.007812 C 10.765625 17.382812 10.863281 16.464844 11.308594 15.546875 C 11.753906 14.632812 12.539062 13.71875 13.949219 13.078125 L 13.867188 12.898438 "/>
</g>
</g>
</svg>
